<svg xmlns="http://www.w3.org/2000/svg" xmlns:xlink="http://www.w3.org/1999/xlink" width="225.723" height="150.656" viewBox="0 0 225.723 150.656"><defs><filter id="a" x="0" y="103.87" width="225.723" height="46.786" filterUnits="userSpaceOnUse"><feOffset dy="3" input="SourceAlpha"/><feGaussianBlur stdDeviation="3" result="b"/><feFlood flood-opacity="0.161"/><feComposite operator="in" in2="b"/><feComposite in="SourceGraphic"/></filter><filter id="c" x="76.67" y="0" width="73.168" height="78.414" filterUnits="userSpaceOnUse"><feOffset dy="3" input="SourceAlpha"/><feGaussianBlur stdDeviation="3" result="d"/><feFlood flood-opacity="0.161"/><feComposite operator="in" in2="d"/><feComposite in="SourceGraphic"/></filter><filter id="e" x="82.009" y="55.084" width="64.27" height="33.992" filterUnits="userSpaceOnUse"><feOffset dy="3" input="SourceAlpha"/><feGaussianBlur stdDeviation="3" result="f"/><feFlood flood-opacity="0.161"/><feComposite operator="in" in2="f"/><feComposite in="SourceGraphic"/></filter><filter id="g" x="85.568" y="14.215" width="55.372" height="46.43" filterUnits="userSpaceOnUse"><feOffset dy="3" input="SourceAlpha"/><feGaussianBlur stdDeviation="3" result="h"/><feFlood flood-opacity="0.161"/><feComposite operator="in" in2="h"/><feComposite in="SourceGraphic"/></filter></defs><g transform="translate(9 6)"><g transform="matrix(1, 0, 0, 1, -9, -6)" filter="url(#a)"><path d="M5.178,59.9V65.78H9.887V59.9h4.228V72.913q0,6.013-3.075,6.013H4.506q-3.588,0-3.588-3.518V59.9ZM6.3,75.408H8.926q.961,0,.961-1.887V69.3H5.178v4.99A.99.99,0,0,0,6.3,75.408Zm9-8.22h3.588V58.456h4.26V82.892q0,4.35-2.531,4.35h-.577a1,1,0,0,1-1.153-1.119V70.866H15.3Zm21.6-7.932h4.357v1.375a8.066,8.066,0,0,0,2.018,5.181,12.413,12.413,0,0,0,5.8,3.742q1.217.384.577,1.951-.673,1.663-1.89,1.375A17.516,17.516,0,0,1,39.6,67.8q-.288-.352-.513-.672-.256.32-.513.672A17.317,17.317,0,0,1,30.4,72.849q-1.217.32-1.89-1.343-.641-1.567.577-1.983a12.21,12.21,0,0,0,5.8-3.71,8.067,8.067,0,0,0,2.018-5.181ZM52.474,77.9a2.3,2.3,0,0,1,.112,1.7,1.887,1.887,0,0,1-1.265,1.151,12.029,12.029,0,0,1-1.826.624q-1.217.336-2.819.624-1.634.288-3.54.48a38.834,38.834,0,0,1-3.892.192q-1.954,0-3.908-.192T31.748,82q-1.666-.288-2.963-.624a13.017,13.017,0,0,1-1.938-.624,1.788,1.788,0,0,1-1.233-1.119,1.98,1.98,0,0,1,.208-1.727,1.192,1.192,0,0,1,.673-.544,2.822,2.822,0,0,1,.833-.128,4.876,4.876,0,0,1,.849.144q.432.112.849.208.352.128,1.249.352t2.21.448q1.313.224,3.027.384t3.732.16a35.636,35.636,0,0,0,3.8-.176,25.981,25.981,0,0,0,2.771-.432q1.121-.224,1.858-.448l1.153-.352q.384-.1.9-.208a6.821,6.821,0,0,1,1.057-.144,2.5,2.5,0,0,1,.977.128A1.3,1.3,0,0,1,52.474,77.9Zm9.5-18.263a6.051,6.051,0,0,1,3.123.8,7.487,7.487,0,0,1,2.29,2.079A9.473,9.473,0,0,1,68.809,65.6a14.492,14.492,0,0,1,.5,3.854,14.067,14.067,0,0,1-.5,3.774,9.488,9.488,0,0,1-1.425,3.07,7.33,7.33,0,0,1-2.29,2.111,6.051,6.051,0,0,1-3.123.8,5.892,5.892,0,0,1-3.011-.8A7.27,7.27,0,0,1,56.652,76.3a9.105,9.105,0,0,1-1.458-3.07,14.067,14.067,0,0,1-.5-3.774,14.492,14.492,0,0,1,.5-3.854,9.092,9.092,0,0,1,1.458-3.086,7.424,7.424,0,0,1,2.306-2.079A5.892,5.892,0,0,1,61.97,59.639Zm0,15.7a1.953,1.953,0,0,0,1.249-.464,4.175,4.175,0,0,0,1.025-1.3,7.77,7.77,0,0,0,.641-1.935,11.793,11.793,0,0,0,.224-2.351,11.386,11.386,0,0,0-.224-2.3,7.789,7.789,0,0,0-.641-1.919,4.28,4.28,0,0,0-1.025-1.263,1.954,1.954,0,0,0-1.249-.464,1.914,1.914,0,0,0-1.217.464,3.9,3.9,0,0,0-.993,1.263A7.789,7.789,0,0,0,59.119,67a11.385,11.385,0,0,0-.224,2.3,11.792,11.792,0,0,0,.224,2.351,7.769,7.769,0,0,0,.641,1.935,3.827,3.827,0,0,0,.993,1.3A1.914,1.914,0,0,0,61.97,75.344ZM76.545,63.19h3.428q.833,0,.833,1.119,0,2.495-1.538,2.495H76.545v4.7h3.428q.833,0,.833,1.119,0,2.495-1.538,2.495H76.545v7.772q0,4.35-2.5,4.35h-.609a.99.99,0,0,1-1.121-1.119V58.456h4.228ZM96.4,59.639a5.842,5.842,0,0,1,3.043.8,7.555,7.555,0,0,1,2.274,2.079A9.648,9.648,0,0,1,103.1,65.6a14.947,14.947,0,0,1,.48,3.854,14.508,14.508,0,0,1-.48,3.774,9.663,9.663,0,0,1-1.377,3.07,7.394,7.394,0,0,1-2.274,2.111,5.842,5.842,0,0,1-3.043.8,5.663,5.663,0,0,1-2.947-.8A7.394,7.394,0,0,1,91.181,76.3a9.252,9.252,0,0,1-1.409-3.07,14.508,14.508,0,0,1-.48-3.774,14.947,14.947,0,0,1,.48-3.854,9.24,9.24,0,0,1,1.409-3.086,7.554,7.554,0,0,1,2.274-2.079A5.663,5.663,0,0,1,96.4,59.639Zm0,15.832a1.7,1.7,0,0,0,1.169-.48,4.755,4.755,0,0,0,.977-1.343,7.352,7.352,0,0,0,.625-1.951,13.118,13.118,0,0,0,.208-2.4,12.672,12.672,0,0,0-.208-2.351,7.358,7.358,0,0,0-.625-1.935,4.882,4.882,0,0,0-.977-1.311,1.7,1.7,0,0,0-1.169-.48,1.723,1.723,0,0,0-1.153.48,3.893,3.893,0,0,0-.929,1.311,7.358,7.358,0,0,0-.625,1.935,12.671,12.671,0,0,0-.208,2.351,13.117,13.117,0,0,0,.208,2.4,7.352,7.352,0,0,0,.625,1.951,3.836,3.836,0,0,0,.929,1.343A1.723,1.723,0,0,0,96.4,75.472Zm8.2-8.284h3.267V58.456h4.26V82.892q0,4.35-2.531,4.35h-.577a1,1,0,0,1-1.153-1.119V70.866H104.6ZM117.27,59.9H129.7q.8,0,.8,1.119,0,2.4-1.506,2.4H121.53V73.968a1,1,0,0,0,1.153,1.119h8.969q.833,0,.833,1.119,0,2.4-1.538,2.4H120.89q-3.62,0-3.62-3.518Zm21.751,23q0,4.35-2.531,4.35h-.641a1,1,0,0,1-1.153-1.119V58.456h4.324ZM151.3,59a8.121,8.121,0,0,1,3.171.592,7.61,7.61,0,0,1,2.37,1.519,6.393,6.393,0,0,1,1.441,2.255A7.789,7.789,0,0,1,158.8,66.2a7.576,7.576,0,0,1-.513,2.783,6.422,6.422,0,0,1-1.441,2.239,7.314,7.314,0,0,1-2.37,1.551,8.121,8.121,0,0,1-3.171.592,7.983,7.983,0,0,1-3.091-.592,7.276,7.276,0,0,1-2.386-1.551,6.035,6.035,0,0,1-1.458-2.239,7.792,7.792,0,0,1-.5-2.783,8.012,8.012,0,0,1,.5-2.831,6.011,6.011,0,0,1,1.458-2.255,7.568,7.568,0,0,1,2.386-1.519A7.983,7.983,0,0,1,151.3,59Zm0,10.747a2.93,2.93,0,0,0,1.3-.288,3.411,3.411,0,0,0,1.762-1.967,4.106,4.106,0,0,0,.24-1.423,4.011,4.011,0,0,0-.24-1.391,3.669,3.669,0,0,0-.689-1.167,3.96,3.96,0,0,0-1.073-.768,2.929,2.929,0,0,0-1.3-.288,2.961,2.961,0,0,0-1.281.288,3.452,3.452,0,0,0-1.057.768,3.669,3.669,0,0,0-.689,1.167,4.011,4.011,0,0,0-.24,1.391,4.106,4.106,0,0,0,.24,1.423,3.669,3.669,0,0,0,.689,1.167,3.226,3.226,0,0,0,1.057.8A2.961,2.961,0,0,0,151.3,69.746Zm14.735.032q0,4.35-2.5,4.35h-.609a.99.99,0,0,1-1.121-1.119V58.456h4.228ZM158.9,75.248h4.228V76.3a8.784,8.784,0,0,0,1.073,4.334,11.01,11.01,0,0,0,2.8,3.31q.993.864-.1,2.111-1.281,1.343-2.338.576a13.822,13.822,0,0,1-3.556-4.062,15.167,15.167,0,0,1-3.171,3.71q-.961.736-1.249.7-.256.032-1.185-.672a14.612,14.612,0,0,1-3.2-3.742,13.7,13.7,0,0,1-3.588,4.03q-1.025.8-2.306-.544-1.121-1.247-.128-2.143A10.272,10.272,0,0,0,149,80.637a8.889,8.889,0,0,0,1.057-4.334V75.248h4.26V76.3a8.982,8.982,0,0,0,1.057,4.35,11.532,11.532,0,0,0,1.217,1.727,9.089,9.089,0,0,0,1.217-1.727A8.77,8.77,0,0,0,158.9,76.3ZM171.53,59.9h4.26V73.808a1,1,0,0,0,1.153,1.119h8.809q.833,0,.833,1.119,0,2.4-1.538,2.4h-9.9q-3.62,0-3.62-3.518Zm21.59,23q0,4.35-2.531,4.35h-.641a1,1,0,0,1-1.153-1.119V58.456h4.325ZM208.639,65.3a5.049,5.049,0,0,1-.5,1.887,6.2,6.2,0,0,1-1.105,1.6,6.124,6.124,0,0,1-1.57,1.231,6.368,6.368,0,0,1-1.922.688l-.192,4.414q-.224,2.239-2.146,2.239h-1.249l-.545-8.412q.9-.256,1.778-.592a6.219,6.219,0,0,0,1.522-.816,2.81,2.81,0,0,0,.881-1.135,2.213,2.213,0,0,0-.016-1.551,2.154,2.154,0,0,0-1.105-1.343,4.6,4.6,0,0,0-1.81-.48,8.662,8.662,0,0,0-2.034.112,7.682,7.682,0,0,0-1.682.464L195.6,60.631a12.714,12.714,0,0,1,5.574-1.311,11.236,11.236,0,0,1,3.075.4,7.009,7.009,0,0,1,2.4,1.167,5.292,5.292,0,0,1,1.49,1.871A5.528,5.528,0,0,1,208.639,65.3ZM201.688,79.15a3.078,3.078,0,0,1,1.986.864,2.514,2.514,0,0,1,.641,1.759,2.6,2.6,0,0,1-.7,1.823,2.48,2.48,0,0,1-1.922.768,2.523,2.523,0,0,1-2-.784A2.656,2.656,0,0,1,199,81.772a2.6,2.6,0,0,1,.737-1.839A2.556,2.556,0,0,1,201.688,79.15Z" transform="translate(8.08 51.41)" fill="#fff" fill-rule="evenodd"/></g><g transform="matrix(1, 0, 0, 1, -9, -6)" filter="url(#c)"><path d="M66.743,53.691c.7.509,2.54,3.22,4.023,5.943a1.51,1.51,0,0,0,1.328.781l.075,0a1.5,1.5,0,0,0,1.317-.911c1.125-2.67,2.635-5.352,3.3-5.876A27.181,27.181,0,0,0,99.168,27.054C99.168,12.136,86.794,0,71.584,0S44,12.136,44,27.054a26.753,26.753,0,0,0,6.573,17.527A27.743,27.743,0,0,0,66.743,53.691ZM71.584,2.953a24.368,24.368,0,0,1,24.573,24.1,24.215,24.215,0,0,1-20.071,23.7c-.878.16-1.943.785-3.776,4.245-.127.24-.25.48-.368.713-.162-.263-.332-.533-.508-.806-2.05-3.181-3.094-3.938-4.031-4.1A24.167,24.167,0,0,1,47.011,27.054,24.368,24.368,0,0,1,71.584,2.953Z" transform="translate(41.67 6)" fill="#fff"/></g><g transform="matrix(1, 0, 0, 1, -9, -6)" filter="url(#e)"><path d="M82.4,31.036a1.508,1.508,0,0,0-1.8,1.111A1.467,1.467,0,0,0,81.738,33.9c5.854,1.277,8.52,3.232,8.52,4.508,0,.874-1.391,2.353-5.311,3.643a49.344,49.344,0,0,1-14.81,2.008A49.365,49.365,0,0,1,55.323,42.05c-3.92-1.29-5.311-2.769-5.311-3.643,0-1.176,2.384-3.021,7.618-4.3a1.465,1.465,0,0,0,1.1-1.779A1.509,1.509,0,0,0,56.9,31.264c-6.384,1.555-9.9,4.092-9.9,7.143,0,1.825,1.277,4.422,7.359,6.423a52.481,52.481,0,0,0,15.778,2.162A52.462,52.462,0,0,0,85.912,44.83c6.082-2,7.359-4.6,7.359-6.423C93.27,35.183,89.408,32.565,82.4,31.036Z" transform="translate(44.01 30.08)" fill="#fff"/></g><g transform="matrix(1, 0, 0, 1, -9, -6)" filter="url(#g)"><path d="M54.164,17.724V29.868a1.469,1.469,0,0,0,1.478,1.46h1.963V34.97a1.478,1.478,0,0,0,2.955,0V31.329H74.814V34.97a1.478,1.478,0,0,0,2.955,0V31.329h1.963a1.469,1.469,0,0,0,1.478-1.46V17.724h3.685a1.46,1.46,0,1,0,0-2.921H81.21V9.46A1.469,1.469,0,0,0,79.732,8H55.642a1.469,1.469,0,0,0-1.478,1.46V14.8H50.478a1.46,1.46,0,1,0,0,2.921ZM71.371,28.408H64V24.526h7.369Zm6.884,0H74.326V24.526h3.928ZM57.12,10.921H78.254V21.6H57.12Zm0,13.605h3.926v3.882H57.12Z" transform="translate(45.57 12.22)" fill="#fff"/></g></g></svg>