<?xml version="1.0" encoding="UTF-8"?>
<svg width="118px" height="75px" viewBox="0 0 118 75" version="1.1" xmlns="http://www.w3.org/2000/svg" xmlns:xlink="http://www.w3.org/1999/xlink">
    <!-- Generator: Sketch 48.2 (47327) - http://www.bohemiancoding.com/sketch -->
    <title>Group</title>
    <desc>Created with Sketch.</desc>
    <defs></defs>
    <g id="Desktop-HD" stroke="none" stroke-width="1" fill="none" fill-rule="evenodd" transform="translate(-661.000000, -32.000000)">
        <g id="Group" transform="translate(661.000000, 32.000000)">
            <path d="M3.312,59.266 L3.312,62.578 L5.958,62.578 L5.958,59.266 L8.334,59.266 L8.334,66.592 C8.334,68.8480113 7.75800576,69.976 6.606,69.976 L2.934,69.976 C1.58999328,69.976 0.918,69.3160066 0.918,67.996 L0.918,59.266 L3.312,59.266 Z M3.942,67.996 L5.418,67.996 C5.7780018,67.996 5.958,67.6420035 5.958,66.934 L5.958,64.558 L3.312,64.558 L3.312,67.366 C3.312,67.7860021 3.5219979,67.996 3.942,67.996 Z M9,63.37 L11.016,63.37 L11.016,58.456 L13.41,58.456 L13.41,72.208 C13.41,73.8400082 12.9360047,74.656 11.988,74.656 L11.664,74.656 C11.2319978,74.656 11.016,74.4460021 11.016,74.026 L11.016,65.44 L9,65.44 L9,63.37 Z M21.14,58.906 L23.588,58.906 L23.588,59.68 C23.588,60.7000051 23.9659962,61.6719954 24.722,62.596 C25.4780038,63.5200046 26.5639929,64.2219976 27.98,64.702 C28.4360023,64.8460007 28.5440012,65.2119971 28.304,65.8 C28.0519987,66.4240031 27.6980023,66.6820005 27.242,66.574 C25.1779897,65.8779965 23.648005,64.9240061 22.652,63.712 C22.5439995,63.5799993 22.4480004,63.4540006 22.364,63.334 C22.2679995,63.4540006 22.1720005,63.5799993 22.076,63.712 C21.079995,64.9240061 19.5500103,65.8719966 17.486,66.556 C17.0299977,66.6760006 16.6760013,66.4240031 16.424,65.8 C16.1839988,65.2119971 16.2919977,64.8400008 16.748,64.684 C18.1640071,64.2159977 19.2499962,63.5200046 20.006,62.596 C20.7620038,61.6719954 21.14,60.7000051 21.14,59.68 L21.14,58.906 Z M29.888,69.4 C30.0320007,69.7360017 30.0530005,70.0539985 29.951,70.354 C29.8489995,70.6540015 29.6120019,70.8699993 29.24,71.002 C29.0119989,71.1100005 28.6700023,71.2269994 28.214,71.353 C27.7579977,71.4790006 27.230003,71.5959995 26.63,71.704 C26.0179969,71.8120005 25.3550036,71.9019996 24.641,71.974 C23.9269964,72.0460004 23.1980037,72.082 22.454,72.082 C21.7219963,72.082 20.9900037,72.0460004 20.258,71.974 C19.5259963,71.9019996 18.8540031,71.8120005 18.242,71.704 C17.6179969,71.5959995 17.0630024,71.4790006 16.577,71.353 C16.0909976,71.2269994 15.7280012,71.1100005 15.488,71.002 C15.1399983,70.8939995 14.9090006,70.6840016 14.795,70.372 C14.6809994,70.0599984 14.719999,69.7360017 14.912,69.4 C15.0080005,69.2439992 15.1339992,69.1420002 15.29,69.094 C15.4460008,69.0459998 15.6019992,69.022 15.758,69.022 C15.9140008,69.0340001 16.0729992,69.0609998 16.235,69.103 C16.3970008,69.1450002 16.5559992,69.1839998 16.712,69.22 C16.8440007,69.2680002 17.0779983,69.3339996 17.414,69.418 C17.7500017,69.5020004 18.1639975,69.5859996 18.656,69.67 C19.1480025,69.7540004 19.7149968,69.8259997 20.357,69.886 C20.9990032,69.9460003 21.6979962,69.976 22.454,69.976 C23.2700041,69.976 23.980997,69.9430003 24.587,69.877 C25.193003,69.8109997 25.7119978,69.7300005 26.144,69.634 C26.5640021,69.5499996 26.9119986,69.4660004 27.188,69.382 C27.4640014,69.2979996 27.6799992,69.2320002 27.836,69.184 C27.9800007,69.1479998 28.147999,69.1090002 28.34,69.067 C28.532001,69.0249998 28.729999,68.9980001 28.934,68.986 C29.126001,68.9739999 29.3089991,68.9979997 29.483,69.058 C29.6570009,69.1180003 29.7919995,69.2319992 29.888,69.4 Z M35.224,59.122 C35.8840033,59.122 36.4689975,59.2719985 36.979,59.572 C37.4890026,59.8720015 37.9179983,60.2619976 38.266,60.742 C38.6140017,61.2220024 38.8809991,61.8009966 39.067,62.479 C39.2530009,63.1570034 39.346,63.8799962 39.346,64.648 C39.346,65.3920037 39.2530009,66.0999966 39.067,66.772 C38.8809991,67.4440034 38.6140017,68.0199976 38.266,68.5 C37.9179983,68.9920025 37.4890026,69.3879985 36.979,69.688 C36.4689975,69.9880015 35.8840033,70.138 35.224,70.138 C34.6119969,70.138 34.0480026,69.9880015 33.532,69.688 C33.0159974,69.3879985 32.5840017,68.9920025 32.236,68.5 C31.8759982,68.0199976 31.6030009,67.4440034 31.417,66.772 C31.2309991,66.0999966 31.138,65.3920037 31.138,64.648 C31.138,63.8799962 31.2309991,63.1570034 31.417,62.479 C31.6030009,61.8009966 31.8759982,61.2220024 32.236,60.742 C32.5840017,60.2619976 33.0159974,59.8720015 33.532,59.572 C34.0480026,59.2719985 34.6119969,59.122 35.224,59.122 Z M35.224,67.96 C35.4760013,67.96 35.7099989,67.8730009 35.926,67.699 C36.1420011,67.5249991 36.3339992,67.2820016 36.502,66.97 C36.6580008,66.6579984 36.7779996,66.2950021 36.862,65.881 C36.9460004,65.4669979 36.988,65.0260023 36.988,64.558 C36.988,64.1019977 36.9460004,63.670002 36.862,63.262 C36.7779996,62.853998 36.6580008,62.4940016 36.502,62.182 C36.3339992,61.8819985 36.1420011,61.6450009 35.926,61.471 C35.7099989,61.2969991 35.4760013,61.21 35.224,61.21 C34.9839988,61.21 34.7560011,61.2969991 34.54,61.471 C34.3239989,61.6450009 34.1380008,61.8819985 33.982,62.182 C33.8259992,62.4940016 33.7060004,62.853998 33.622,63.262 C33.5379996,63.670002 33.496,64.1019977 33.496,64.558 C33.496,65.0260023 33.5379996,65.4669979 33.622,65.881 C33.7060004,66.2950021 33.8259992,66.6579984 33.982,66.97 C34.1380008,67.2820016 34.3239989,67.5249991 34.54,67.699 C34.7560011,67.8730009 34.9839988,67.96 35.224,67.96 Z M43.414,61.12 L45.34,61.12 C45.6520016,61.12 45.808,61.3299979 45.808,61.75 C45.808,62.6860047 45.5200029,63.154 44.944,63.154 L43.414,63.154 L43.414,65.8 L45.34,65.8 C45.6520016,65.8 45.808,66.0099979 45.808,66.43 C45.808,67.3660047 45.5200029,67.834 44.944,67.834 L43.414,67.834 L43.414,72.208 C43.414,73.8400082 42.9460047,74.656 42.01,74.656 L41.668,74.656 C41.2479979,74.656 41.038,74.4460021 41.038,74.026 L41.038,58.456 L43.414,58.456 L43.414,61.12 Z M54.572,59.122 C55.2080032,59.122 55.7779975,59.2719985 56.282,59.572 C56.7860025,59.8720015 57.2119983,60.2619976 57.56,60.742 C57.8960017,61.2220024 58.1539991,61.8009966 58.334,62.479 C58.5140009,63.1570034 58.604,63.8799962 58.604,64.648 C58.604,65.3920037 58.5140009,66.0999966 58.334,66.772 C58.1539991,67.4440034 57.8960017,68.0199976 57.56,68.5 C57.2119983,68.9920025 56.7860025,69.3879985 56.282,69.688 C55.7779975,69.9880015 55.2080032,70.138 54.572,70.138 C53.971997,70.138 53.4200025,69.9880015 52.916,69.688 C52.4119975,69.3879985 51.9860017,68.9920025 51.638,68.5 C51.2899983,68.0199976 51.0260009,67.4440034 50.846,66.772 C50.6659991,66.0999966 50.576,65.3920037 50.576,64.648 C50.576,63.8799962 50.6659991,63.1570034 50.846,62.479 C51.0260009,61.8009966 51.2899983,61.2220024 51.638,60.742 C51.9860017,60.2619976 52.4119975,59.8720015 52.916,59.572 C53.4200025,59.2719985 53.971997,59.122 54.572,59.122 Z M54.572,68.032 C54.8120012,68.032 55.030999,67.9420009 55.229,67.762 C55.427001,67.5819991 55.6099992,67.3300016 55.778,67.006 C55.9340008,66.6939984 56.0509996,66.3280021 56.129,65.908 C56.2070004,65.4879979 56.246,65.0380024 56.246,64.558 C56.246,64.0899977 56.2070004,63.6490021 56.129,63.235 C56.0509996,62.8209979 55.9340008,62.4580016 55.778,62.146 C55.6099992,61.8339984 55.427001,61.5880009 55.229,61.408 C55.030999,61.2279991 54.8120012,61.138 54.572,61.138 C54.3439989,61.138 54.128001,61.2279991 53.924,61.408 C53.719999,61.5880009 53.5460007,61.8339984 53.402,62.146 C53.2459992,62.4580016 53.1290004,62.8209979 53.051,63.235 C52.9729996,63.6490021 52.934,64.0899977 52.934,64.558 C52.934,65.0380024 52.9729996,65.4879979 53.051,65.908 C53.1290004,66.3280021 53.2459992,66.6939984 53.402,67.006 C53.5460007,67.3300016 53.719999,67.5819991 53.924,67.762 C54.128001,67.9420009 54.3439989,68.032 54.572,68.032 Z M59.18,63.37 L61.016,63.37 L61.016,58.456 L63.41,58.456 L63.41,72.208 C63.41,73.8400082 62.9360047,74.656 61.988,74.656 L61.664,74.656 C61.2319978,74.656 61.016,74.4460021 61.016,74.026 L61.016,65.44 L59.18,65.44 L59.18,63.37 Z M66.298,59.266 L73.282,59.266 C73.5820015,59.266 73.732,59.4759979 73.732,59.896 C73.732,60.7960045 73.4500028,61.246 72.886,61.246 L68.692,61.246 L68.692,67.186 C68.692,67.6060021 68.9079978,67.816 69.34,67.816 L74.38,67.816 C74.6920016,67.816 74.848,68.0259979 74.848,68.446 C74.848,69.3460045 74.5600029,69.796 73.984,69.796 L68.332,69.796 C66.9759932,69.796 66.298,69.1360066 66.298,67.816 L66.298,59.266 Z M78.52,72.208 C78.52,73.8400082 78.0460047,74.656 77.098,74.656 L76.738,74.656 C76.3059978,74.656 76.09,74.4460021 76.09,74.026 L76.09,58.456 L78.52,58.456 L78.52,72.208 Z M85.422,58.762 C86.0820033,58.762 86.6759974,58.8729989 87.204,59.095 C87.7320026,59.3170011 88.1759982,59.6019983 88.536,59.95 C88.8840017,60.2980017 89.153999,60.7209975 89.346,61.219 C89.538001,61.7170025 89.634,62.2479972 89.634,62.812 C89.634,63.3640028 89.538001,63.8859975 89.346,64.378 C89.153999,64.8700025 88.8840017,65.2899983 88.536,65.638 C88.1759982,65.9980018 87.7320026,66.2889989 87.204,66.511 C86.6759974,66.7330011 86.0820033,66.844 85.422,66.844 C84.7979969,66.844 84.2190027,66.7330011 83.685,66.511 C83.1509973,66.2889989 82.7040018,65.9980018 82.344,65.638 C81.9839982,65.2899983 81.7110009,64.8700025 81.525,64.378 C81.3389991,63.8859975 81.246,63.3640028 81.246,62.812 C81.246,62.2479972 81.3389991,61.7170025 81.525,61.219 C81.7110009,60.7209975 81.9839982,60.2980017 82.344,59.95 C82.7040018,59.6019983 83.1509973,59.3170011 83.685,59.095 C84.2190027,58.8729989 84.7979969,58.762 85.422,58.762 Z M85.422,64.81 C85.6860013,64.81 85.9289989,64.7560005 86.151,64.648 C86.3730011,64.5399995 86.5739991,64.390001 86.754,64.198 C86.9220008,64.005999 87.0509996,63.7870012 87.141,63.541 C87.2310005,63.2949988 87.276,63.0280014 87.276,62.74 C87.276,62.4639986 87.2310005,62.2030012 87.141,61.957 C87.0509996,61.7109988 86.9220008,61.492001 86.754,61.3 C86.5739991,61.1199991 86.3730011,60.9760005 86.151,60.868 C85.9289989,60.7599995 85.6860013,60.706 85.422,60.706 C85.1699987,60.706 84.9300011,60.7599995 84.702,60.868 C84.4739989,60.9760005 84.2760008,61.1199991 84.108,61.3 C83.9399992,61.492001 83.8110005,61.7109988 83.721,61.957 C83.6309996,62.2030012 83.586,62.4639986 83.586,62.74 C83.586,63.0280014 83.6309996,63.2949988 83.721,63.541 C83.8110005,63.7870012 83.9399992,64.005999 84.108,64.198 C84.2760008,64.390001 84.4739989,64.5399995 84.702,64.648 C84.9300011,64.7560005 85.1699987,64.81 85.422,64.81 Z M93.702,64.828 C93.702,66.4600082 93.2340047,67.276 92.298,67.276 L91.956,67.276 C91.5359979,67.276 91.326,67.0660021 91.326,66.646 L91.326,58.456 L93.702,58.456 L93.702,64.828 Z M89.688,67.906 L92.064,67.906 L92.064,68.5 C92.064,69.4000045 92.264998,70.2129964 92.667,70.939 C93.069002,71.6650036 93.5939968,72.2859974 94.242,72.802 C94.6140019,73.1260016 94.596002,73.5219977 94.188,73.99 C93.7079976,74.4940025 93.270002,74.6020014 92.874,74.314 C92.2139967,73.8579977 91.5480034,73.0960053 90.876,72.028 C90.3119972,72.9160044 89.7180031,73.6119975 89.094,74.116 C88.7339982,74.3920014 88.5000005,74.5240001 88.392,74.512 C88.2959995,74.5240001 88.0740017,74.3980013 87.726,74.134 C87.0899968,73.6299975 86.4900028,72.9280045 85.926,72.028 C85.2419966,73.0960053 84.5700033,73.8519978 83.91,74.296 C83.5259981,74.5960015 83.0940024,74.4940025 82.614,73.99 C82.1939979,73.5219977 82.1699981,73.1200017 82.542,72.784 C83.2020033,72.2799975 83.729998,71.6650036 84.126,70.939 C84.522002,70.2129964 84.72,69.4000045 84.72,68.5 L84.72,67.906 L87.114,67.906 L87.114,68.5 C87.114,69.4000045 87.311998,70.2159963 87.708,70.948 C87.900001,71.2840017 88.1279987,71.6079984 88.392,71.92 C88.6680014,71.6079984 88.8959991,71.2840017 89.076,70.948 C89.484002,70.2159963 89.688,69.4000045 89.688,68.5 L89.688,67.906 Z M96.788,59.266 L99.182,59.266 L99.182,67.096 C99.182,67.5160021 99.3979978,67.726 99.83,67.726 L104.78,67.726 C105.092002,67.726 105.248,67.9359979 105.248,68.356 C105.248,69.2560045 104.960003,69.706 104.384,69.706 L98.822,69.706 C97.4659932,69.706 96.788,69.0460066 96.788,67.726 L96.788,59.266 Z M108.92,72.208 C108.92,73.8400082 108.446005,74.656 107.498,74.656 L107.138,74.656 C106.705998,74.656 106.49,74.4460021 106.49,74.026 L106.49,58.456 L108.92,58.456 L108.92,72.208 Z M117.64,62.308 C117.616,62.6800019 117.523001,63.0339983 117.361,63.37 C117.198999,63.7060017 116.992001,64.0059987 116.74,64.27 C116.487999,64.5460014 116.194002,64.7769991 115.858,64.963 C115.521998,65.1490009 115.162002,65.2779996 114.778,65.35 L114.67,67.834 C114.586,68.6740042 114.184004,69.094 113.464,69.094 L112.762,69.094 L112.456,64.36 C112.792002,64.2639995 113.124998,64.1530006 113.455,64.027 C113.785002,63.9009994 114.069999,63.7480009 114.31,63.568 C114.538001,63.3879991 114.702999,63.1750012 114.805,62.929 C114.907001,62.6829988 114.904001,62.3920017 114.796,62.056 C114.687999,61.7079983 114.481002,61.4560008 114.175,61.3 C113.868998,61.1439992 113.530002,61.0540001 113.158,61.03 C112.773998,61.0059999 112.393002,61.0269997 112.015,61.093 C111.636998,61.1590003 111.322001,61.2459995 111.07,61.354 L110.314,59.68 C111.334005,59.1879975 112.377995,58.942 113.446,58.942 C114.070003,58.942 114.645997,59.0169993 115.174,59.167 C115.702003,59.3170008 116.151998,59.5359986 116.524,59.824 C116.884002,60.1120014 117.162999,60.4629979 117.361,60.877 C117.559001,61.2910021 117.652,61.7679973 117.64,62.308 Z M113.734,70.102 C114.238003,70.1620003 114.609999,70.3239987 114.85,70.588 C115.090001,70.8520013 115.21,71.181998 115.21,71.578 C115.21,71.974002 115.078001,72.3159986 114.814,72.604 C114.549999,72.8920014 114.190002,73.036 113.734,73.036 C113.241998,73.036 112.867001,72.8890015 112.609,72.595 C112.350999,72.3009985 112.222,71.9620019 112.222,71.578 C112.222,71.181998 112.359999,70.8370015 112.636,70.543 C112.912001,70.2489985 113.277998,70.102 113.734,70.102 Z" id="버스야-어디있니?" fill="#9B9B9B"></path>
            <path d="M56.7794061,30.2160914 C57.1728724,30.5025333 58.2067471,32.0283123 59.0402087,33.560573 C59.1878326,33.831974 59.4752973,34 59.7861958,34 C59.8001545,34 59.8141132,33.9996676 59.8281565,33.9990028 C60.155044,33.9831309 60.4432701,33.7834443 60.5682216,33.4862826 C61.2002549,31.9834389 62.0486904,30.4741135 62.4216839,30.1793617 C69.715488,28.8136312 75,22.5380019 75,15.2252982 C75,6.82998208 68.0467037,0 59.5,0 C50.9532963,0 44,6.82998208 44,15.2252982 C44,18.8381062 45.3117799,22.3411406 47.693558,25.0891382 C50.02923,27.7837033 53.2529296,29.6021567 56.7794061,30.2160914 Z M59.5,1.6619781 C67.1137546,1.6619781 73.3080357,7.74647991 73.3080357,15.2252982 C73.3080357,21.7646004 68.5651215,27.3728623 62.0299942,28.560595 C61.5365328,28.650508 60.938085,29.0021826 59.9081864,30.9497716 C59.8367009,31.0850566 59.7674995,31.2196768 59.7014283,31.3511393 C59.6103161,31.2033064 59.5146355,31.050903 59.4160786,30.8975855 C58.2642739,29.1072196 57.6776699,28.6813377 57.1512152,28.5927543 C50.5112707,27.4751571 45.6919643,21.85335 45.6919643,15.2252982 C45.6919643,7.74647991 51.8862454,1.6619781 59.5,1.6619781 Z" id="Shape" fill="#B78BDF" fill-rule="nonzero"></path>
            <path d="M66.8896657,31.0200643 C66.4340331,30.9206505 65.9811086,31.2003136 65.878879,31.6453636 C65.7768187,32.090331 66.0637893,32.5318305 66.5197604,32.6314919 C69.8092178,33.35026 71.307457,34.4503343 71.307457,35.1683593 C71.307457,35.6604739 70.5259252,36.4926925 68.3232497,37.2187267 C66.1128731,37.9474032 63.1575237,38.3486087 60.001354,38.3486087 C56.8439996,38.3486087 53.8877193,37.9474032 51.6770888,37.2187267 C49.4742441,36.4926925 48.692543,35.6604739 48.692543,35.1683593 C48.692543,34.5067293 50.0321062,33.4679216 52.9733229,32.7504747 C53.4266706,32.6398314 53.7023858,32.1915613 53.5889855,31.7491535 C53.4755851,31.3067458 53.0162289,31.0378993 52.562712,31.1483774 C48.9755362,32.0233671 47,33.4510774 47,35.1683593 C47,36.1956898 47.717469,37.6568409 51.1353058,38.7832549 C53.5160368,39.5679135 56.6646747,40 60.001354,40 C63.3369332,40 66.4847248,39.5679135 68.8650327,38.7833374 C72.2827003,37.6568409 73,36.1957724 73,35.1684418 C73,33.3542233 70.8299906,31.8810171 66.8896657,31.0200643 Z" id="Shape" fill="#B78BDF" fill-rule="nonzero"></path>
            <path d="M51.9020063,13.4723389 L51.9020063,20.3070095 C51.9020063,20.7609283 52.2738391,21.1288795 52.7323609,21.1288795 L53.835487,21.1288795 L53.835487,23.17813 C53.835487,23.6320488 54.2072367,24 54.6658416,24 C55.1243634,24 55.4961962,23.6320488 55.4961962,23.17813 L55.4961962,21.1288795 L63.5050493,21.1288795 L63.5050493,23.17813 C63.5050493,23.6320488 63.8768821,24 64.3354039,24 C64.7939258,24 65.1657585,23.6320488 65.1657585,23.17813 L65.1657585,21.1288795 L66.2688846,21.1288795 C66.7274064,21.1288795 67.0992392,20.7609283 67.0992392,20.3070095 L67.0992392,13.4723389 L69.1696454,13.4723389 C69.6281672,13.4723389 70,13.1043878 70,12.650469 C70,12.1965502 69.6281672,11.828599 69.1696454,11.828599 L67.0992392,11.828599 L67.0992392,8.82186996 C67.0992392,8.36795118 66.7274064,8 66.2688846,8 L61.4333977,8 L57.5666023,8 L52.7323609,8 C52.2738391,8 51.9020063,8.36795118 51.9020063,8.82186996 L51.9020063,11.828599 L49.8303546,11.828599 C49.3718328,11.828599 49,12.1965502 49,12.650469 C49,13.1043878 49.3718328,13.4723389 49.8303546,13.4723389 L51.9020063,13.4723389 Z M61.5704892,19.4852218 L57.4295938,19.4852218 L57.4295938,17.3003627 L61.5704892,17.3003627 L61.5704892,19.4852218 Z M65.4386131,19.4852218 L63.2311984,19.4852218 L63.2311984,17.3003627 L65.4386131,17.3003627 L65.4386131,19.4852218 Z M53.5627155,9.64373992 L57.5666023,9.64373992 L61.4333977,9.64373992 L65.43853,9.64373992 L65.43853,15.6565405 L53.5627155,15.6565405 L53.5627155,9.64373992 Z M53.5627155,17.3003627 L55.7688016,17.3003627 L55.7688016,19.4852218 L53.5627155,19.4852218 L53.5627155,17.3003627 Z" id="Shape" fill="#B78BDF" fill-rule="nonzero"></path>
        </g>
    </g>
</svg>